<?xml version="1.0" encoding="UTF-8"?>
<svg width="24" height="24" viewBox="0 0 24 24" xmlns="http://www.w3.org/2000/svg">
  <path fill="currentColor" d="M12 0c-6.627 0-12 5.373-12 12s5.373 12 12 12 12-5.373 12-12-5.373-12-12-12zm0 2c5.514 0 10 4.486 10 10s-4.486 10-10 10-10-4.486-10-10 4.486-10 10-10zm-2.426 3.89v.001l-.407 2.753 1.748-.008.007-.471c.127-.006.254-.009.38-.009.881 0 1.578.159 2.092.478.514.319.771.773.771 1.362 0 .439-.127.798-.38 1.077-.254.279-.601.469-1.043.574l-.604 2.729-.015.068h-1.802l.569-2.665c-.311.039-.617.058-.917.058-.915 0-1.693-.16-2.336-.479-.642-.319-1.109-.809-1.4-1.471-.291-.661-.437-1.466-.437-2.415 0-.609.087-1.17.262-1.683.174-.513.436-.95.784-1.31.348-.36.778-.639 1.29-.838.513-.199 1.104-.299 1.775-.299.662 0 1.256.1 1.783.299.527.2.972.479 1.334.838.362.36.635.797.818 1.31.183.513.274 1.074.274 1.683 0 .609-.087 1.17-.262 1.683-.174.513-.436.95-.784 1.31-.348.36-.778.639-1.29.838-.513.199-1.104.299-1.775.299-.662 0-1.256-.1-1.783-.299-.527-.2-.972-.479-1.334-.838-.362-.36-.635-.797-.818-1.31-.183-.513-.274-1.074-.274-1.683 0-.609.087-1.17.262-1.683.174-.513.436-.95.784-1.31.348-.36.778-.639 1.29-.838.513-.199 1.104-.299 1.775-.299.662 0 1.256.1 1.783.299.527.2.972.479 1.334.838.362.36.635.797.818 1.31.183.513.274 1.074.274 1.683 0 .609-.087 1.17-.262 1.683-.174.513-.436.95-.784 1.31-.348.36-.778.639-1.29.838-.513.199-1.104.299-1.775.299-.662 0-1.256-.1-1.783-.299-.527-.2-.972-.479-1.334-.838-.362-.36-.635-.797-.818-1.31-.183-.513-.274-1.074-.274-1.683 0-.609.087-1.17.262-1.683.174-.513.436-.95.784-1.31.348-.36.778-.639 1.29-.838.513-.199 1.104-.299 1.775-.299z"/>
</svg>
